<svg width="38" height="38" viewBox="0 0 38 38" fill="none" xmlns="http://www.w3.org/2000/svg">
<path d="M29.8646 29.5C30.8459 29.5 31.7871 29.8687 32.4809 30.5251C33.1748 31.1815 33.5646 32.0717 33.5646 33C33.5646 33.9283 33.1748 34.8185 32.4809 35.4749C31.7871 36.1312 30.8459 36.5 29.8646 36.5C28.8833 36.5 27.9422 36.1312 27.2484 35.4749C26.5545 34.8185 26.1646 33.9283 26.1646 33C26.1646 31.0575 27.8111 29.5 29.8646 29.5ZM0.264648 1.5H6.31415L8.05315 5H35.4146C35.9053 5 36.3759 5.18437 36.7228 5.51256C37.0697 5.84075 37.2646 6.28587 37.2646 6.75C37.2646 7.0475 37.1721 7.345 37.0426 7.625L30.4196 18.9475C29.7906 20.015 28.5696 20.75 27.1821 20.75H13.3996L11.7346 23.6025L11.6791 23.8125C11.6791 23.9285 11.7279 24.0398 11.8146 24.1219C11.9013 24.2039 12.019 24.25 12.1416 24.25H33.5646V27.75H11.3646C10.3833 27.75 9.44224 27.3813 8.74835 26.7249C8.05447 26.0685 7.66465 25.1783 7.66465 24.25C7.66465 23.6375 7.83115 23.06 8.10865 22.57L10.6246 18.2825L3.96465 5H0.264648V1.5ZM11.3646 29.5C12.3459 29.5 13.2871 29.8687 13.9809 30.5251C14.6748 31.1815 15.0646 32.0717 15.0646 33C15.0646 33.9283 14.6748 34.8185 13.9809 35.4749C13.2871 36.1312 12.3459 36.5 11.3646 36.5C10.3833 36.5 9.44224 36.1312 8.74835 35.4749C8.05447 34.8185 7.66465 33.9283 7.66465 33C7.66465 31.0575 9.31115 29.5 11.3646 29.5ZM28.0146 17.25L33.1576 8.5H9.77365L14.1396 17.25H28.0146Z" fill="#23557F"/>
</svg>
