<svg width="86" height="85" viewBox="0 0 86 85" fill="none" xmlns="http://www.w3.org/2000/svg">
<path d="M43 31.6667V45.2083M75.5 42.5C75.5 46.768 74.6594 50.9941 73.0261 54.9372C71.3928 58.8803 68.9989 62.4631 65.981 65.481C62.9631 68.4989 59.3803 70.8928 55.4372 72.5261C51.4941 74.1594 47.268 75 43 75C38.732 75 34.5059 74.1594 30.5628 72.5261C26.6197 70.8928 23.0369 68.4989 20.019 65.481C17.0011 62.4631 14.6072 58.8803 12.9739 54.9372C11.3406 50.9941 10.5 46.768 10.5 42.5C10.5 33.8805 13.9241 25.614 20.019 19.519C26.114 13.4241 34.3805 10 43 10C51.6195 10 59.886 13.4241 65.981 19.519C72.0759 25.614 75.5 33.8805 75.5 42.5ZM43 56.0417H43.0289V56.0706H43V56.0417Z" stroke="#23557F" stroke-width="4" stroke-linecap="round" stroke-linejoin="round"/>
</svg>
