<svg width="183" height="42" viewBox="0 0 183 42" fill="none" xmlns="http://www.w3.org/2000/svg">
<path fill-rule="evenodd" clip-rule="evenodd" d="M0 34.6014V0.316162H7.34015V16.8808C9.56598 14.9544 12.305 13.5145 15.1791 12.5977C15.1706 11.8922 15.1655 11.2189 15.1626 10.5972C15.1574 9.44848 15.16 8.4672 15.1639 7.77213C15.1659 7.42446 15.1682 7.14804 15.17 6.95768C15.1709 6.8625 15.1717 6.7888 15.1723 6.73844C15.1725 6.71326 15.1728 6.69391 15.1729 6.68063L15.1732 6.65983L15.1732 6.65944C15.1732 6.6593 15.1732 6.65919 18.843 6.70584L15.1732 6.65919L22.5127 6.65466L22.5798 11.4164C22.9481 11.4165 23.3132 11.426 23.6743 11.445C26.6606 11.6018 29.7541 12.4247 32.1851 14.337C34.7461 16.3516 36.2575 19.3405 36.2575 23.0309C36.2575 29.5534 32.262 33.5575 27.6457 34.6107C23.6099 35.5315 17.8919 34.1377 16.3775 28.8465C15.9614 27.3927 15.7587 25.605 15.6293 23.9307C15.54 22.7753 15.4772 21.537 15.4212 20.3276C13.9589 21.0038 12.6427 21.8714 11.6203 22.8886C9.63774 24.8609 8.51431 27.672 7.91691 30.267C7.62681 31.5272 7.48125 32.6471 7.40902 33.4447C7.3731 33.8413 7.35583 34.1524 7.34758 34.3542C7.34345 34.4549 7.34159 34.5279 7.34077 34.5703C7.34036 34.5914 7.34015 34.6101 7.34015 34.6101L7.34013 34.612L7.34015 34.6083L7.34015 34.6034C7.34015 34.6034 7.34015 34.6014 3.67008 34.6014H0ZM22.6956 18.7191C22.7036 18.8941 22.7115 19.0684 22.7194 19.2418C22.7853 20.6934 22.8485 22.0854 22.9478 23.3709C23.0728 24.9878 23.2372 26.1484 23.4371 26.8466C23.4641 26.941 24.0862 27.9307 26.005 27.493C26.7669 27.3191 27.4593 26.9181 27.9631 26.2949C28.4478 25.6954 28.9173 24.6933 28.9173 23.0309C28.9173 21.499 28.375 20.6493 27.6325 20.0652C26.76 19.3788 25.3003 18.843 23.2875 18.7373C23.0918 18.7271 22.8944 18.721 22.6956 18.7191Z" fill="url(#paint0_angular_546_705)"/>
<path fill-rule="evenodd" clip-rule="evenodd" d="M22.4947 4.18648H15.1545V5.97559H22.4947V4.18648ZM21.3203 5.3914C21.4824 5.3914 21.6139 5.26062 21.6139 5.0993C21.6139 4.93797 21.4824 4.8072 21.3203 4.8072C21.1581 4.8072 21.0267 4.93797 21.0267 5.0993C21.0267 5.26062 21.1581 5.3914 21.3203 5.3914Z" fill="url(#paint1_angular_546_705)"/>
<path fill-rule="evenodd" clip-rule="evenodd" d="M22.4947 2.25132H15.1545V4.04043H22.4947V2.25132ZM21.3203 3.45623C21.4824 3.45623 21.6139 3.32546 21.6139 3.16413C21.6139 3.00281 21.4824 2.87203 21.3203 2.87203C21.1581 2.87203 21.0267 3.00281 21.0267 3.16413C21.0267 3.32546 21.1581 3.45623 21.3203 3.45623Z" fill="url(#paint2_angular_546_705)"/>
<path fill-rule="evenodd" clip-rule="evenodd" d="M22.4947 0.316162H15.1545V2.10527H22.4947V0.316162ZM21.3203 1.52107C21.4824 1.52107 21.6139 1.3903 21.6139 1.22897C21.6139 1.06765 21.4824 0.936874 21.3203 0.936874C21.1581 0.936874 21.0267 1.06765 21.0267 1.22897C21.0267 1.3903 21.1581 1.52107 21.3203 1.52107Z" fill="url(#paint3_angular_546_705)"/>
<path d="M22.6609 20.7012L22.5691 18.4475C22.5691 18.4475 21.2835 18.3765 18.8224 18.9358C16.3614 19.495 15.2961 20.1002 15.2961 20.1002L15.4063 22.4102L22.6609 20.7012Z" fill="url(#paint4_radial_546_705)" fill-opacity="0.8"/>
<path d="M22.6245 9.38037L22.6609 11.4072C22.6609 11.4072 21.0263 11.4283 18.5775 11.8717C16.1286 12.315 15.2961 12.7795 15.2961 12.7795V9.67595L22.6245 9.38037Z" fill="url(#paint5_radial_546_705)" fill-opacity="0.8"/>
<path d="M173.948 30.074L178.363 19.2087H182.923L172.73 41.6841H168.097L171.531 34.1257L165.335 19.2087H169.95L173.948 30.074Z" fill="#4AB39A"/>
<path d="M154.74 34.5617C153.322 34.5617 152.075 34.2226 150.997 33.5442C149.931 32.8538 149.095 31.9151 148.489 30.728C147.896 29.5288 147.599 28.1782 147.599 26.6763C147.599 25.1743 147.896 23.8297 148.489 22.6427C149.095 21.4435 149.931 20.4987 150.997 19.8083C152.075 19.1178 153.322 18.7726 154.74 18.7726C155.745 18.7726 156.635 18.9362 157.411 19.2632C158.198 19.5902 158.828 19.9779 159.3 20.426C159.773 20.8742 160.051 21.2739 160.136 21.6252V9.12476H164.769V34.1256H160.19V31.5274C159.997 31.9514 159.639 32.3996 159.118 32.872C158.598 33.3444 157.962 33.7441 157.211 34.0711C156.46 34.3982 155.636 34.5617 154.74 34.5617ZM156.048 30.8915C156.823 30.8915 157.52 30.7159 158.137 30.3646C158.755 30.0012 159.24 29.5046 159.591 28.8747C159.954 28.2328 160.136 27.4999 160.136 26.6763C160.136 25.8526 159.954 25.1258 159.591 24.4959C159.24 23.854 158.755 23.3513 158.137 22.9879C157.52 22.6245 156.823 22.4428 156.048 22.4428C155.333 22.4428 154.679 22.6245 154.086 22.9879C153.492 23.3392 153.014 23.8358 152.65 24.4778C152.299 25.1076 152.123 25.8405 152.123 26.6763C152.123 27.512 152.299 28.2509 152.65 28.8929C153.014 29.5228 153.492 30.0133 154.086 30.3646C154.679 30.7159 155.333 30.8915 156.048 30.8915Z" fill="#4AB39A"/>
<path d="M136.755 34.5617C135.338 34.5617 134.09 34.2226 133.012 33.5442C131.946 32.8538 131.11 31.9151 130.505 30.728C129.911 29.5288 129.614 28.1782 129.614 26.6763C129.614 25.1743 129.911 23.8297 130.505 22.6427C131.11 21.4435 131.946 20.4987 133.012 19.8083C134.09 19.1178 135.338 18.7726 136.755 18.7726C137.76 18.7726 138.651 18.9362 139.426 19.2632C140.213 19.5902 140.843 19.9779 141.315 20.426C141.788 20.8742 142.066 21.2739 142.151 21.6252V9.12476H146.784V34.1256H142.206V31.5274C142.012 31.9514 141.655 32.3996 141.134 32.872C140.613 33.3444 139.977 33.7441 139.226 34.0711C138.475 34.3982 137.651 34.5617 136.755 34.5617ZM138.063 30.8915C138.838 30.8915 139.535 30.7159 140.153 30.3646C140.77 30.0012 141.255 29.5046 141.606 28.8747C141.97 28.2328 142.151 27.4999 142.151 26.6763C142.151 25.8526 141.97 25.1258 141.606 24.4959C141.255 23.854 140.77 23.3513 140.153 22.9879C139.535 22.6245 138.838 22.4428 138.063 22.4428C137.348 22.4428 136.694 22.6245 136.101 22.9879C135.507 23.3392 135.029 23.8358 134.665 24.4778C134.314 25.1076 134.139 25.8405 134.139 26.6763C134.139 27.512 134.314 28.2509 134.665 28.8929C135.029 29.5228 135.507 30.0133 136.101 30.3646C136.694 30.7159 137.348 30.8915 138.063 30.8915Z" fill="#4AB39A"/>
<path d="M117.053 26.3493C117.053 27.6817 117.319 28.7476 117.852 29.547C118.385 30.3344 119.245 30.728 120.432 30.728C121.632 30.728 122.498 30.3344 123.031 29.547C123.564 28.7476 123.83 27.6817 123.83 26.3493V19.2087H128.372V26.8762C128.372 28.4145 128.064 29.7651 127.446 30.9279C126.828 32.0786 125.926 32.975 124.739 33.617C123.564 34.2468 122.128 34.5618 120.432 34.5618C118.749 34.5618 117.313 34.2468 116.126 33.617C114.951 32.975 114.055 32.0786 113.437 30.9279C112.819 29.7651 112.511 28.4145 112.511 26.8762V19.2087H117.053V26.3493Z" fill="#4AB39A"/>
<path d="M94.6747 10.1421H102.306C103.65 10.1421 104.904 10.3238 106.067 10.6872C107.23 11.0506 108.168 11.6562 108.883 12.5041C109.61 13.352 109.973 14.5088 109.973 15.9744C109.973 16.9556 109.785 17.8337 109.41 18.609C109.034 19.3842 108.556 20.0201 107.975 20.5167C107.393 21.0012 106.781 21.3101 106.14 21.4434C106.685 21.5039 107.242 21.6675 107.811 21.9339C108.38 22.2004 108.907 22.5699 109.392 23.0423C109.876 23.5147 110.264 24.1082 110.555 24.8228C110.857 25.5375 111.009 26.3733 111.009 27.3302C111.009 28.6626 110.718 29.8436 110.137 30.8732C109.567 31.8907 108.72 32.6901 107.593 33.2715C106.479 33.8409 105.092 34.1255 103.432 34.1255H94.6747V10.1421ZM99.217 30.4553H102.506C103.426 30.4553 104.159 30.3039 104.704 30.0011C105.261 29.6983 105.661 29.2864 105.903 28.7656C106.146 28.2447 106.267 27.6512 106.267 26.985C106.267 25.9191 105.928 25.1014 105.249 24.5321C104.571 23.9628 103.608 23.6782 102.36 23.6782H99.217V30.4553ZM99.217 20.0807H102.106C102.857 20.0807 103.475 19.9353 103.959 19.6446C104.456 19.3418 104.831 18.9421 105.086 18.4454C105.34 17.9367 105.467 17.3856 105.467 16.792C105.467 15.6534 105.134 14.8722 104.468 14.4482C103.814 14.0243 102.924 13.8123 101.797 13.8123H99.217V20.0807Z" fill="#4AB39A"/>
<path d="M74.784 19.2085H77.473V13.0854H82.0517V19.2085H85.5765V23.0422H82.0517V28.4385C82.0517 29.1531 82.1667 29.7103 82.3969 30.11C82.627 30.4977 82.9904 30.6915 83.487 30.6915C83.8625 30.6915 84.1714 30.6188 84.4137 30.4734C84.6559 30.316 84.8013 30.2069 84.8497 30.1464L86.485 33.4532C86.4123 33.5259 86.1761 33.653 85.7764 33.8347C85.3888 34.0164 84.8861 34.18 84.2683 34.3253C83.6627 34.4828 82.9783 34.5615 82.2152 34.5615C80.8464 34.5615 79.7139 34.1678 78.8175 33.3805C77.9212 32.5811 77.473 31.3456 77.473 29.674V23.0422H74.784V19.2085Z" fill="#4AB39A"/>
<path d="M68.7941 10.1421H73.3364V34.1255H68.7941V10.1421Z" fill="#4AB39A"/>
<path d="M48.7579 19.2085H51.447V13.0854H56.0256V19.2085H59.5505V23.0422H56.0256V28.4385C56.0256 29.1531 56.1407 29.7103 56.3709 30.11C56.601 30.4977 56.9644 30.6915 57.461 30.6915C57.8365 30.6915 58.1454 30.6188 58.3876 30.4734C58.6299 30.316 58.7753 30.2069 58.8237 30.1464L60.4589 33.4532C60.3863 33.5259 60.1501 33.653 59.7503 33.8347C59.3627 34.0164 58.86 34.18 58.2423 34.3253C57.6366 34.4828 56.9523 34.5615 56.1892 34.5615C54.8204 34.5615 53.6879 34.1678 52.7915 33.3805C51.8952 32.5811 51.447 31.3456 51.447 29.674V23.0422H48.7579V19.2085Z" fill="#4AB39A"/>
<path d="M43.1042 18.7727C44.0005 18.7727 44.8303 18.8575 45.5934 19.0271C46.3565 19.1845 46.9985 19.3662 47.5193 19.5722C48.0523 19.7781 48.4035 19.9537 48.5731 20.0991L46.9924 22.879C46.7501 22.6852 46.3141 22.455 45.6842 22.1885C45.0665 21.922 44.376 21.7888 43.6129 21.7888C42.9225 21.7888 42.3411 21.9099 41.8687 22.1522C41.3963 22.3823 41.1601 22.7336 41.1601 23.206C41.1601 23.6784 41.4144 24.0539 41.9232 24.3325C42.4319 24.6111 43.1405 24.8533 44.049 25.0593C44.8121 25.2167 45.5631 25.459 46.302 25.786C47.0409 26.101 47.6525 26.5613 48.1371 27.1669C48.6216 27.7604 48.8638 28.5538 48.8638 29.5471C48.8638 30.5282 48.6519 31.3458 48.2279 31.9999C47.8161 32.6419 47.2649 33.1506 46.5745 33.5261C45.8841 33.9016 45.127 34.1681 44.3033 34.3256C43.4797 34.4831 42.6621 34.5618 41.8505 34.5618C40.7967 34.5618 39.8701 34.4588 39.0706 34.2529C38.2712 34.0591 37.611 33.835 37.0902 33.5806C36.5814 33.3142 36.218 33.0901 36 32.9084L37.5807 29.8196C37.8957 30.0982 38.4105 30.4071 39.1251 30.7462C39.8519 31.0733 40.6332 31.2368 41.4689 31.2368C42.3411 31.2368 43.0254 31.0854 43.5221 30.7826C44.0308 30.4798 44.2852 30.074 44.2852 29.5652C44.2852 29.1897 44.1641 28.8869 43.9218 28.6568C43.6795 28.4145 43.3464 28.2147 42.9225 28.0572C42.4985 27.8997 42.0019 27.7604 41.4326 27.6393C40.9118 27.5303 40.3788 27.3728 39.8337 27.1669C39.2886 26.9489 38.7799 26.6642 38.3075 26.3129C37.8351 25.9617 37.4535 25.5256 37.1628 25.0048C36.8721 24.4718 36.7268 23.8359 36.7268 23.097C36.7268 22.1522 37.0296 21.3649 37.6352 20.735C38.2409 20.093 39.0282 19.6085 39.9972 19.2814C40.9663 18.9423 42.0019 18.7727 43.1042 18.7727Z" fill="#4AB39A"/>
<defs>
<radialGradient id="paint0_angular_546_705" cx="0" cy="0" r="1" gradientUnits="userSpaceOnUse" gradientTransform="translate(22.5864 11.4342) rotate(-36.2272) scale(18.8126 14.9826)">
<stop offset="0.0900458" stop-color="#52C29A"/>
<stop offset="0.901778" stop-color="#1A5A96"/>
</radialGradient>
<radialGradient id="paint1_angular_546_705" cx="0" cy="0" r="1" gradientUnits="userSpaceOnUse" gradientTransform="translate(22.5864 11.4342) rotate(-36.2272) scale(18.8126 14.9826)">
<stop offset="0.0900458" stop-color="#52C29A"/>
<stop offset="0.901778" stop-color="#1A5A96"/>
</radialGradient>
<radialGradient id="paint2_angular_546_705" cx="0" cy="0" r="1" gradientUnits="userSpaceOnUse" gradientTransform="translate(22.5864 11.4342) rotate(-36.2272) scale(18.8126 14.9826)">
<stop offset="0.0900458" stop-color="#52C29A"/>
<stop offset="0.901778" stop-color="#1A5A96"/>
</radialGradient>
<radialGradient id="paint3_angular_546_705" cx="0" cy="0" r="1" gradientUnits="userSpaceOnUse" gradientTransform="translate(22.5864 11.4342) rotate(-36.2272) scale(18.8126 14.9826)">
<stop offset="0.0900458" stop-color="#52C29A"/>
<stop offset="0.901778" stop-color="#1A5A96"/>
</radialGradient>
<radialGradient id="paint4_radial_546_705" cx="0" cy="0" r="1" gradientUnits="userSpaceOnUse" gradientTransform="translate(19.6305 23.1239) rotate(-100.241) scale(4.75213 24.2329)">
<stop offset="0.66" stop-color="#2C7A97" stop-opacity="0"/>
<stop offset="1" stop-color="#184A73"/>
</radialGradient>
<radialGradient id="paint5_radial_546_705" cx="0" cy="0" r="1" gradientUnits="userSpaceOnUse" gradientTransform="translate(19.6166 12.9484) rotate(-97.8314) scale(2.40819 25.3842)">
<stop offset="0.28" stop-color="#184A73"/>
<stop offset="1" stop-color="#2C7A97" stop-opacity="0"/>
</radialGradient>
</defs>
</svg>
