<svg width="687" height="662" viewBox="0 0 687 662" fill="none" xmlns="http://www.w3.org/2000/svg">
<path fill-rule="evenodd" clip-rule="evenodd" d="M328.638 173.019L236.3 74.2544L218.891 91.6887L311.229 190.453L328.638 173.019ZM306.005 173.202C307.512 174.798 310.005 174.817 311.575 173.245C313.144 171.673 313.196 169.105 311.69 167.509C310.184 165.913 307.69 165.894 306.121 167.466C304.551 169.038 304.499 171.606 306.005 173.202Z" fill="url(#paint0_angular_144_925)"/>
<path fill-rule="evenodd" clip-rule="evenodd" d="M347.468 154.161L255.13 55.3969L237.721 72.8312L330.059 171.595L347.468 154.161ZM324.835 154.344C326.341 155.94 328.835 155.959 330.404 154.387C331.974 152.815 332.026 150.247 330.52 148.651C329.013 147.056 326.52 147.036 324.95 148.608C323.381 150.18 323.329 152.748 324.835 154.344Z" fill="url(#paint1_angular_144_925)"/>
<path fill-rule="evenodd" clip-rule="evenodd" d="M366.297 135.304L273.959 36.5395L256.551 53.9737L348.889 152.738L366.297 135.304ZM343.665 135.487C345.171 137.083 347.664 137.102 349.234 135.53C350.804 133.958 350.855 131.39 349.349 129.794C347.843 128.198 345.35 128.179 343.78 129.751C342.21 131.323 342.159 133.891 343.665 135.487Z" fill="url(#paint2_angular_144_925)"/>
<path fill-rule="evenodd" clip-rule="evenodd" d="M184.944 535.037C184.944 535.037 133.634 514.697 88.3651 472.684C34.4766 422.672 29.078 402.502 55.0949 337.817C81.1118 273.131 212.121 99.58 212.121 99.58L259.443 152.039L189.829 408.879L205.924 412.128C207.87 406.57 208.904 402.699 211.093 397.357C229.201 353.176 257.793 311.163 299.105 285.339C342.625 258.134 395.108 252.307 450.05 273.277C547.159 310.341 585.668 393.396 576.964 469.052C569.355 535.196 515.502 570.98 443.945 586.034C392.38 596.883 302.156 572.259 302.156 572.259C302.156 572.259 261.689 564.163 236.943 555.537C207.944 545.429 184.944 535.037 184.944 535.037ZM314.221 453.462C316.87 454.336 319.506 455.207 322.129 456.073C344.088 463.327 365.147 470.284 384.809 476.088C409.543 483.39 427.691 487.504 439.142 488.455C440.689 488.584 458.711 484.819 462.329 453.37C463.765 440.884 461.451 428.154 454.835 417.01C448.469 406.288 436.03 393.507 411.279 384.06C388.472 375.356 372.957 378.713 360.339 386.6C345.512 395.868 329.824 414.855 317.619 444.632C316.432 447.528 315.299 450.474 314.221 453.462Z" fill="url(#paint3_angular_144_925)"/>
<path d="M346.986 464.057L313.725 452.934C313.725 452.934 305.933 471.84 301.127 511.886C296.322 551.932 299.523 571.279 299.523 571.279L317.906 574.744L333.018 574.324L346.986 464.057Z" fill="url(#paint4_radial_144_925)" fill-opacity="0.8"/>
<path d="M144.272 517.438L179.657 404.097L190.279 409.037L205.943 412.537C205.943 412.537 197.639 438.607 190.279 478.183C182.919 517.759 184.943 534.537 184.943 534.537L144.272 517.438Z" fill="url(#paint5_radial_144_925)" fill-opacity="0.8"/>
<defs>
<radialGradient id="paint0_angular_144_925" cx="0" cy="0" r="1" gradientUnits="userSpaceOnUse" gradientTransform="translate(313.899 115.671) rotate(22.3083) scale(61.2841 38.971)">
<stop offset="0.0900458" stop-color="#52C29A"/>
<stop offset="0.901778" stop-color="#1A5A96"/>
</radialGradient>
<radialGradient id="paint1_angular_144_925" cx="0" cy="0" r="1" gradientUnits="userSpaceOnUse" gradientTransform="translate(313.899 115.671) rotate(22.3083) scale(61.2841 38.971)">
<stop offset="0.0900458" stop-color="#52C29A"/>
<stop offset="0.901778" stop-color="#1A5A96"/>
</radialGradient>
<radialGradient id="paint2_angular_144_925" cx="0" cy="0" r="1" gradientUnits="userSpaceOnUse" gradientTransform="translate(313.899 115.671) rotate(22.3083) scale(61.2841 38.971)">
<stop offset="0.0900458" stop-color="#52C29A"/>
<stop offset="0.901778" stop-color="#1A5A96"/>
</radialGradient>
<radialGradient id="paint3_angular_144_925" cx="0" cy="0" r="1" gradientUnits="userSpaceOnUse" gradientTransform="translate(256.919 285.141) rotate(-114.727) scale(249.785 202.882)">
<stop offset="0.0900458" stop-color="#52C29A"/>
<stop offset="0.901778" stop-color="#1A5A96"/>
</radialGradient>
<radialGradient id="paint4_radial_144_925" cx="0" cy="0" r="1" gradientUnits="userSpaceOnUse" gradientTransform="translate(366.29 522.986) rotate(-169.632) scale(73.6607 386.925)">
<stop offset="0.66" stop-color="#2C7A97" stop-opacity="0"/>
<stop offset="1" stop-color="#184A73"/>
</radialGradient>
<radialGradient id="paint5_radial_144_925" cx="0" cy="0" r="1" gradientUnits="userSpaceOnUse" gradientTransform="translate(209.79 467.636) rotate(-168.291) scale(33.3602 410.875)">
<stop offset="0.28" stop-color="#184A73"/>
<stop offset="1" stop-color="#2C7A97" stop-opacity="0"/>
</radialGradient>
</defs>
</svg>
