<svg width="47" height="60" viewBox="0 0 47 60" fill="none" xmlns="http://www.w3.org/2000/svg">
<path d="M40.6428 20H37.7857V14.2857C37.7857 6.4 31.3857 0 23.5 0C15.6143 0 9.21425 6.4 9.21425 14.2857V20H6.35711C3.21425 20 0.642822 22.5714 0.642822 25.7143V54.2857C0.642822 57.4286 3.21425 60 6.35711 60H40.6428C43.7857 60 46.3571 57.4286 46.3571 54.2857V25.7143C46.3571 22.5714 43.7857 20 40.6428 20ZM23.5 45.7143C20.3571 45.7143 17.7857 43.1429 17.7857 40C17.7857 36.8571 20.3571 34.2857 23.5 34.2857C26.6428 34.2857 29.2143 36.8571 29.2143 40C29.2143 43.1429 26.6428 45.7143 23.5 45.7143ZM14.9285 20V14.2857C14.9285 9.54286 18.7571 5.71429 23.5 5.71429C28.2428 5.71429 32.0714 9.54286 32.0714 14.2857V20H14.9285Z" fill="url(#paint0_angular_254_769)"/>
<defs>
<radialGradient id="paint0_angular_254_769" cx="0" cy="0" r="1" gradientUnits="userSpaceOnUse" gradientTransform="translate(29.1203 19.3033) rotate(-45.2525) scale(27.1795 22.7014)">
<stop offset="0.0900458" stop-color="#52C29A"/>
<stop offset="0.901778" stop-color="#1A5A96"/>
</radialGradient>
</defs>
</svg>
