<svg width="28" height="28" viewBox="0 0 28 28" fill="none" xmlns="http://www.w3.org/2000/svg">
<path d="M14.0494 22.2667C13.7234 22.0604 13.3078 22.06 12.9814 22.2657L6.43411 26.3927L6.4323 26.3938C6.22013 26.5282 6.0077 26.5041 5.82961 26.3686C5.64505 26.2281 5.52449 25.9802 5.59281 25.6728L7.32814 17.8815C7.4063 17.5306 7.29007 17.1647 7.02374 16.9232L1.23371 11.6737L1.23336 11.6734C1.02837 11.4877 0.967233 11.2153 1.0493 10.9521C1.13086 10.6906 1.31697 10.5412 1.54424 10.5222L1.54425 10.5223L1.54977 10.5218L9.16989 9.84495C9.5434 9.81177 9.86696 9.57242 10.008 9.22497L12.9898 1.87896L12.9898 1.87896L12.9913 1.87517C13.192 1.37494 13.8373 1.37494 14.038 1.87517L14.0392 1.87823L17.021 9.24075C17.1619 9.58858 17.4856 9.82825 17.8594 9.86145L25.4795 10.5383L25.4795 10.5383L25.4851 10.5388C25.7123 10.5577 25.8984 10.7071 25.98 10.9686C26.0621 11.2318 26.0009 11.5042 25.7959 11.6899L25.7956 11.6902L20.0056 16.9397C19.7392 17.1812 19.623 17.5471 19.7012 17.898L21.4365 25.6893C21.5048 25.9967 21.3842 26.2447 21.1997 26.3851C21.0216 26.5206 20.8092 26.5447 20.597 26.4103L20.5967 26.4102L14.0494 22.2667Z" stroke="url(#paint0_angular_546_337)" stroke-width="2" stroke-linejoin="round"/>
<defs>
<radialGradient id="paint0_angular_546_337" cx="0" cy="0" r="1" gradientUnits="userSpaceOnUse" gradientTransform="translate(16.8342 9.1865) rotate(-37.5476) scale(14.2537 11.5051)">
<stop offset="0.0900458" stop-color="#52C29A"/>
<stop offset="0.901778" stop-color="#1A5A96"/>
</radialGradient>
</defs>
</svg>
