<svg width="60" height="60" viewBox="0 0 60 60" fill="none" xmlns="http://www.w3.org/2000/svg">
<path d="M38.4185 31.2185C44.6435 33.0384 50.111 36.8267 54.0019 42.0155C57.8927 47.2044 59.9972 53.5144 60 60H0C0.00133033 53.514 2.10527 47.2033 5.99631 42.0142C9.88735 36.825 15.3558 33.0371 21.5815 31.2185L30 43.8462L38.4185 31.2185ZM45 15C45 18.9782 43.4196 22.7936 40.6066 25.6066C37.7936 28.4196 33.9782 30 30 30C26.0218 30 22.2064 28.4196 19.3934 25.6066C16.5804 22.7936 15 18.9782 15 15C15 11.0218 16.5804 7.20644 19.3934 4.3934C22.2064 1.58035 26.0218 0 30 0C33.9782 0 37.7936 1.58035 40.6066 4.3934C43.4196 7.20644 45 11.0218 45 15Z" fill="url(#paint0_angular_254_765)"/>
<defs>
<radialGradient id="paint0_angular_254_765" cx="0" cy="0" r="1" gradientUnits="userSpaceOnUse" gradientTransform="translate(37.3767 19.3033) rotate(-37.5476) scale(31.6749 25.5669)">
<stop offset="0.0900458" stop-color="#52C29A"/>
<stop offset="0.901778" stop-color="#1A5A96"/>
</radialGradient>
</defs>
</svg>
