<svg width="28" height="27" viewBox="0 0 28 27" fill="none" xmlns="http://www.w3.org/2000/svg">
<path d="M21.8644 21.6C22.5805 21.6 23.2672 21.8845 23.7736 22.3908C24.2799 22.8972 24.5644 23.5839 24.5644 24.3C24.5644 25.0161 24.2799 25.7028 23.7736 26.2092C23.2672 26.7155 22.5805 27 21.8644 27C21.1483 27 20.4616 26.7155 19.9552 26.2092C19.4489 25.7028 19.1644 25.0161 19.1644 24.3C19.1644 22.8015 20.3659 21.6 21.8644 21.6ZM0.264404 0H4.6789L5.9479 2.7H25.9144C26.2724 2.7 26.6158 2.84223 26.869 3.09541C27.1222 3.34858 27.2644 3.69196 27.2644 4.05C27.2644 4.2795 27.1969 4.509 27.1024 4.725L22.2694 13.4595C21.8104 14.283 20.9194 14.85 19.9069 14.85H9.84941L8.6344 17.0505L8.5939 17.2125C8.5939 17.302 8.62946 17.3879 8.69276 17.4511C8.75605 17.5144 8.84189 17.55 8.9314 17.55H24.5644V20.25H8.3644C7.64832 20.25 6.96156 19.9655 6.45522 19.4592C5.94887 18.9528 5.6644 18.2661 5.6644 17.55C5.6644 17.0775 5.7859 16.632 5.9884 16.254L7.8244 12.9465L2.9644 2.7H0.264404V0ZM8.3644 21.6C9.08049 21.6 9.76724 21.8845 10.2736 22.3908C10.7799 22.8972 11.0644 23.5839 11.0644 24.3C11.0644 25.0161 10.7799 25.7028 10.2736 26.2092C9.76724 26.7155 9.08049 27 8.3644 27C7.64832 27 6.96156 26.7155 6.45522 26.2092C5.94887 25.7028 5.6644 25.0161 5.6644 24.3C5.6644 22.8015 6.8659 21.6 8.3644 21.6ZM20.5144 12.15L24.2674 5.4H7.2034L10.3894 12.15H20.5144Z" fill="url(#paint0_angular_569_468)"/>
<defs>
<radialGradient id="paint0_angular_569_468" cx="0" cy="0" r="1" gradientUnits="userSpaceOnUse" gradientTransform="translate(17.0839 8.6865) rotate(-37.5476) scale(14.2537 11.5051)">
<stop offset="0.0900458" stop-color="#52C29A"/>
<stop offset="0.901778" stop-color="#1A5A96"/>
</radialGradient>
</defs>
</svg>
