<svg width="24" height="24" viewBox="0 0 24 24" fill="none" xmlns="http://www.w3.org/2000/svg">
<path fill-rule="evenodd" clip-rule="evenodd" d="M20.301 5.02768L11.6505 2L3 5.02768V12.0009C3 15.5709 5.19291 18.0666 7.23443 19.6142C8.39028 20.4833 9.65181 21.2021 10.9888 21.7535C11.1027 21.8002 11.2175 21.8449 11.333 21.8875L11.3547 21.8962L11.3607 21.8979L11.3642 21.8997L11.6505 22L11.9369 21.8997L11.837 21.6148C11.9369 21.8988 11.9377 21.8988 11.9377 21.8988L11.9403 21.8979L11.9464 21.8962L11.968 21.8884C11.9931 21.8791 12.0182 21.8695 12.0433 21.8599C13.4793 21.2967 14.8324 20.5415 16.0657 19.6151C18.1099 18.0657 20.301 15.5701 20.301 12V5.02768ZM11.837 21.6148C11.7949 21.495 11.7352 21.3249 11.6505 21.083L11.837 21.6148ZM15.8145 7.74865L10.9948 12.5683L10.8595 12.4329L8.54931 10.1211L8.4753 10.1951L7.32526 11.3452L10.8603 14.8793L10.9957 15.0147L17.1125 8.89792L15.8884 7.67474L15.8145 7.74865Z" fill="#93A19E"/>
</svg>
