<svg width="24" height="24" viewBox="0 0 24 24" fill="none" xmlns="http://www.w3.org/2000/svg">
<path d="M19.6459 13.4782C19.6887 13.1515 19.7101 12.8139 19.7101 12.4545C19.7101 12.1061 19.6887 11.7576 19.6352 11.4309L21.809 9.71023C21.9027 9.63171 21.9667 9.52259 21.9901 9.40146C22.0136 9.28033 21.995 9.15468 21.9375 9.04593L19.8815 5.4304C19.8209 5.32102 19.7243 5.23696 19.6087 5.19311C19.493 5.14926 19.3659 5.14845 19.2497 5.19082L16.6903 6.23627C16.1549 5.82245 15.5874 5.47396 14.9556 5.2126L14.57 2.4465C14.5511 2.32184 14.4888 2.20823 14.3945 2.1263C14.3002 2.04438 14.1801 1.99956 14.056 2H9.94396C9.68696 2 9.48349 2.18514 9.44066 2.4465L9.05515 5.2126C8.42335 5.47396 7.84509 5.83334 7.32037 6.23627L4.76103 5.19082C4.52544 5.1037 4.25773 5.19082 4.12922 5.4304L2.08389 9.04593C1.95539 9.27462 1.99823 9.55777 2.2124 9.71023L4.38623 11.4309C4.33269 11.7576 4.28985 12.117 4.28985 12.4545C4.28985 12.7921 4.31127 13.1515 4.36481 13.4782L2.19098 15.1989C2.09731 15.2774 2.0333 15.3865 2.00987 15.5076C1.98644 15.6288 2.00503 15.7544 2.06248 15.8632L4.11852 19.4787C4.24702 19.7183 4.51473 19.7945 4.75032 19.7183L7.30966 18.6728C7.84509 19.0866 8.41264 19.4351 9.04444 19.6965L9.42995 22.4626C9.48349 22.724 9.68696 22.9091 9.94396 22.9091H14.056C14.313 22.9091 14.5272 22.724 14.5593 22.4626L14.9448 19.6965C15.5767 19.4351 16.1549 19.0866 16.6796 18.6728L19.239 19.7183C19.4746 19.8054 19.7423 19.7183 19.8708 19.4787L21.9268 15.8632C22.0553 15.6236 22.0018 15.3513 21.7983 15.1989L19.6459 13.4782ZM12 16.375C9.87971 16.375 8.14493 14.6108 8.14493 12.4545C8.14493 10.2983 9.87971 8.53409 12 8.53409C14.1203 8.53409 15.8551 10.2983 15.8551 12.4545C15.8551 14.6108 14.1203 16.375 12 16.375Z" fill="#93A19E"/>
</svg>
