<svg width="24" height="24" viewBox="0 0 24 24" fill="none" xmlns="http://www.w3.org/2000/svg">
<path d="M9 20V4M9 20H16.803C17.921 20 18.48 20 18.907 19.782C19.2838 19.5902 19.5902 19.2838 19.782 18.907C20 18.48 20 17.921 20 16.803V7.197C20 6.079 20 5.519 19.782 5.092C19.5899 4.71558 19.2836 4.40963 18.907 4.218C18.48 4 17.92 4 16.8 4H9M9 20H7.197C6.079 20 5.519 20 5.092 19.782C4.71558 19.5899 4.40963 19.2836 4.218 18.907C4 18.48 4 17.92 4 16.8V7.2C4 6.08 4 5.52 4.218 5.092C4.41 4.715 4.715 4.41 5.092 4.218C5.52 4 6.08 4 7.2 4H9" stroke="#D7E7E3" stroke-width="2" stroke-linecap="round" stroke-linejoin="round"/>
</svg>
