<svg width="230" height="36" viewBox="0 0 230 36" fill="none" xmlns="http://www.w3.org/2000/svg">
<path d="M205 26V10M205 26H212.803C213.921 26 214.48 26 214.907 25.782C215.284 25.5902 215.59 25.2838 215.782 24.907C216 24.48 216 23.921 216 22.803V13.197C216 12.079 216 11.519 215.782 11.092C215.59 10.7156 215.284 10.4096 214.907 10.218C214.48 10 213.92 10 212.8 10H205M205 26H203.197C202.079 26 201.519 26 201.092 25.782C200.716 25.5899 200.41 25.2836 200.218 24.907C200 24.48 200 23.92 200 22.8V13.2C200 12.08 200 11.52 200.218 11.092C200.41 10.715 200.715 10.41 201.092 10.218C201.52 10 202.08 10 203.2 10H205" stroke="#D7E7E3" stroke-width="2" stroke-linecap="round" stroke-linejoin="round"/>
<path d="M220 17.998H227M223 21L220 18L223 15" stroke="#D7E7E3" stroke-width="2" stroke-linecap="round" stroke-linejoin="round"/>
</svg>
