<svg width="60" height="60" viewBox="0 0 60 60" fill="none" xmlns="http://www.w3.org/2000/svg">
<path d="M30 0C46.569 0 60 13.431 60 30C60 46.569 46.569 60 30 60C13.431 60 0 46.569 0 30C0 13.431 13.431 0 30 0ZM30 12C29.2044 12 28.4413 12.3161 27.8787 12.8787C27.3161 13.4413 27 14.2044 27 15V30C27.0002 30.7956 27.3164 31.5585 27.879 32.121L36.879 41.121C37.4448 41.6675 38.2026 41.9699 38.9892 41.963C39.7758 41.9562 40.5282 41.6407 41.0845 41.0845C41.6407 40.5282 41.9562 39.7758 41.963 38.9892C41.9699 38.2026 41.6675 37.4448 41.121 36.879L33 28.758V15C33 14.2044 32.6839 13.4413 32.1213 12.8787C31.5587 12.3161 30.7956 12 30 12Z" fill="url(#paint0_angular_254_757)"/>
<defs>
<radialGradient id="paint0_angular_254_757" cx="0" cy="0" r="1" gradientUnits="userSpaceOnUse" gradientTransform="translate(37.3767 19.3033) rotate(-37.5476) scale(31.6749 25.5669)">
<stop offset="0.0900458" stop-color="#52C29A"/>
<stop offset="0.901778" stop-color="#1A5A96"/>
</radialGradient>
</defs>
</svg>
