<svg width="61" height="60" viewBox="0 0 61 60" fill="none" xmlns="http://www.w3.org/2000/svg">
<path d="M60.1561 2.41846C60.1555 2.41447 60.1555 2.4104 60.1561 2.40641C60.0429 1.90995 59.7931 1.45503 59.4351 1.09296C59.077 0.730885 58.6249 0.476079 58.1298 0.357288C54.1387 -0.616378 47.8601 0.421574 40.9025 3.2073C33.8899 6.01982 27.3193 10.1716 22.8783 14.6208C21.4548 16.0367 20.1323 17.5507 18.9206 19.1516C15.93 19.0177 13.2956 19.4435 11.0764 20.4119C3.34333 23.815 1.13484 32.5244 0.546891 36.1003C0.461813 36.6084 0.495125 37.1293 0.644236 37.6224C0.793347 38.1155 1.05423 38.5676 1.40659 38.9434C1.75895 39.3192 2.19328 39.6086 2.67577 39.7892C3.15827 39.9697 3.67591 40.0365 4.18843 39.9843H4.20584L12.8202 39.0441C12.8309 39.1539 12.8429 39.2544 12.8523 39.3468C12.9629 40.3965 13.4311 41.3762 14.1782 42.1218L18.3822 46.3285C19.1267 47.0767 20.1063 47.5454 21.1559 47.6557L21.4439 47.6865L20.5064 56.2902V56.3076C20.4585 56.7709 20.5078 57.2392 20.6511 57.6824C20.7945 58.1257 21.0288 58.5341 21.339 58.8816C21.6492 59.2291 22.0285 59.5081 22.4527 59.7007C22.8769 59.8933 23.3366 59.9952 23.8024 60C23.9886 60.0002 24.1745 59.9849 24.3582 59.9545C27.9542 59.3759 36.6596 57.1942 40.0533 49.4196C41.0136 47.2151 41.4382 44.5914 41.319 41.6062C42.9271 40.3971 44.4466 39.0746 45.8659 37.6485C50.3431 33.1941 54.5083 26.6771 57.2914 19.7663C60.0624 12.8877 61.1057 6.56223 60.1561 2.41846ZM45.8177 25.84C44.7172 26.9416 43.3147 27.6921 41.7877 27.9964C40.2606 28.3008 38.6776 28.1454 37.2389 27.5499C35.8002 26.9544 34.5704 25.9456 33.7052 24.651C32.8399 23.3565 32.3781 21.8343 32.3781 20.2773C32.3781 18.7202 32.8399 17.1981 33.7052 15.9035C34.5704 14.6089 35.8002 13.6001 37.2389 13.0046C38.6776 12.4091 40.2606 12.2537 41.7877 12.5581C43.3147 12.8624 44.7172 13.6129 45.8177 14.7145C46.5552 15.441 47.141 16.307 47.5408 17.262C47.9406 18.217 48.1465 19.2419 48.1465 20.2773C48.1465 21.3126 47.9406 22.3375 47.5408 23.2925C47.141 24.2475 46.5552 25.1135 45.8177 25.84Z" fill="url(#paint0_angular_254_774)"/>
<defs>
<radialGradient id="paint0_angular_254_774" cx="0" cy="0" r="1" gradientUnits="userSpaceOnUse" gradientTransform="translate(37.8766 19.3033) rotate(-37.5485) scale(31.6743 25.5666)">
<stop offset="0.0900458" stop-color="#52C29A"/>
<stop offset="0.901778" stop-color="#1A5A96"/>
</radialGradient>
</defs>
</svg>
